<svg xmlns="http://www.w3.org/2000/svg" version="1.1" xmlns:xlink="http://www.w3.org/1999/xlink" xmlns:svgjs="http://svgjs.com/svgjs" width="300.000000pt" height="300.000000pt"><svg version="1.0" xmlns="http://www.w3.org/2000/svg" width="300.000000pt" height="300.000000pt" viewBox="0 0 300.000000 300.000000" preserveAspectRatio="xMidYMid meet">

<g transform="translate(0.000000,300.000000) scale(0.100000,-0.100000)" fill="#000000" stroke="none">
<path d="M550 2685 l0 -155 280 0 280 0 0 155 0 155 -280 0 -280 0 0 -155z"></path>
<path d="M1540 2834 c0 -10 622 -1236 625 -1232 4 5 625 1230 625 1234 0 2
-281 4 -625 4 -344 0 -625 -3 -625 -6z"></path>
<path d="M550 1990 l0 -400 280 0 280 0 0 400 0 400 -280 0 -280 0 0 -400z"></path>
<path d="M2240 1130 c0 -192 -3 -350 -7 -350 -5 0 -164 156 -355 347 l-348
348 0 -623 0 -622 630 0 630 0 0 625 0 625 -275 0 -275 0 0 -350z"></path>
<path d="M607 1029 c-263 -519 -397 -787 -397 -794 0 -3 282 -5 626 -5 344 0
624 3 622 8 -7 17 -367 727 -491 971 l-134 263 -226 -443z"></path>
</g>
</svg><style>@media (prefers-color-scheme: light) { :root { filter: none; } }
@media (prefers-color-scheme: dark) { :root { filter: contrast(0.3846153846153846) brightness(4.5); } }
</style></svg>